<?xml version="1.0" encoding="UTF-8"?>
<svg xmlns="http://www.w3.org/2000/svg" viewBox="0 0 500 750">
  <defs>
    <style>
      .h {
        fill: #cbb89d;
      }

      .h, .i, .j {
        stroke-width: 0px;
      }

      .i {
        fill: #412f26;
      }

      .j {
        fill: #6a6f4c;
      }
    </style>
  </defs>
  <g id="a" data-name="Layer 1">
    <g>
      <rect class="i" x="41" y="43" width="418" height="298.57" rx="25" ry="25"/>
      <g>
        <polygon class="h" points="200.85 155.91 121.7 293 280 293 200.85 155.91"/>
        <polygon class="h" points="315.85 183.62 252.7 293 379 293 315.85 183.62"/>
        <circle class="h" cx="272" cy="139" r="19"/>
      </g>
    </g>
    <g>
      <rect class="i" x="41" y="412" width="418" height="298.57" rx="25" ry="25"/>
      <circle class="h" cx="250" cy="561" r="65"/>
      <polygon class="j" points="298 561 223 517.7 223 604.3 298 561"/>
    </g>
  </g>
  <g id="b" data-name="Layer 2">
    <path class="h" d="M470.69,73.12s-25.61-.39-28.2-36.54c0,0-2.81,36.94-21.65,38.29,0,0,22.86-.97,25.27,32.75,0,0-2.55-30.24,24.57-34.49Z"/>
  </g>
  <g id="c" data-name="Layer 3">
    <path class="h" d="M390.67,78.4s3.1,19.83-15.36,23.82c0,0,19.57.14,22.7,14.64,0,0-3.45-17.63,13.77-21.35,0,0-15.39,3.63-21.1-17.11Z"/>
  </g>
  <g id="d" data-name="Layer 4">
    <path class="h" d="M427.42,114.67s-.61,10.62-10.62,10.62c0,0,10.12,2.26,10.12,10.12,0,0,.18-9.52,9.52-9.52,0,0-8.38.16-9.02-11.23Z"/>
  </g>
  <g id="e" data-name="Layer 5">
    <path class="h" d="M468.69,423.12s-25.61-.39-28.2-36.54c0,0-2.81,36.94-21.65,38.29,0,0,22.86-.97,25.27,32.75,0,0-2.55-30.24,24.57-34.49Z"/>
  </g>
  <g id="f" data-name="Layer 6">
    <path class="h" d="M388.67,428.4s3.1,19.83-15.36,23.82c0,0,19.57.14,22.7,14.64,0,0-3.45-17.63,13.77-21.35,0,0-15.39,3.63-21.1-17.11Z"/>
  </g>
  <g id="g" data-name="Layer 7">
    <path class="h" d="M425.42,464.67s-.61,10.62-10.62,10.62c0,0,10.12,2.26,10.12,10.12,0,0,.18-9.52,9.52-9.52,0,0-8.38.16-9.02-11.23Z"/>
  </g>
</svg>