<?xml version="1.0" encoding="UTF-8"?>
<svg xmlns="http://www.w3.org/2000/svg" viewBox="0 0 500 500">
  <defs>
    <style>
      .f {
        fill: #cbb89d;
      }

      .f, .g, .h, .i, .j {
        stroke-width: 0px;
      }

      .g {
        fill: #6a6f4c;
      }

      .h {
        fill: #b9c186;
      }

      .i {
        fill: #806044;
      }

      .j {
        fill: #ede1d2;
      }
    </style>
  </defs>
  <g id="a" data-name="Layer 7">
    <g>
      <path class="j" d="M98,283.9h330s2.28-141.1-165-143.38-165,143.38-165,143.38Z"/>
      <path class="f" d="M430.46,286.4H95.54l-.04-2.46c0-.6-.44-60.33,42.02-102.88,29.24-29.29,71.48-43.75,125.51-43.04,54.96.75,97.67,16.41,126.92,46.55,40.98,42.22,40.55,98.8,40.54,99.37l-.04,2.46ZM100.55,281.4h324.9c-.44-11.12-4.37-57.63-39.12-93.39-28.3-29.12-69.8-44.26-123.36-44.99-52.61-.71-93.62,13.26-121.86,41.53-36.15,36.19-40.12,85.37-40.55,96.85Z"/>
      <path class="g" d="M426,281.38h-27s1-41.29-46-90.63l17-17.12s49,29.2,56,107.75Z"/>
      <path class="h" d="M265,168s47-6,85,20l16-17s-39-29-101-28v25Z"/>
      <rect class="f" x="260.5" y="140.52" width="5" height="27.62"/>
      <rect class="f" x="347.05" y="176.86" width="27.62" height="5" transform="translate(-21.14 307.7) rotate(-45)"/>
      <rect class="f" x="160.36" y="165.55" width="5" height="27.62" transform="translate(-79.13 167.7) rotate(-45)"/>
      <rect class="f" x="118.26" y="221.31" width="5" height="27.62" transform="translate(-142.68 256.71) rotate(-67.5)"/>
      <rect class="f" x="390.29" y="232.62" width="27.62" height="5" transform="translate(-59.23 172.61) rotate(-22.51)"/>
    </g>
  </g>
  <g id="b" data-name="Layer 6">
    <g>
      <polygon class="i" points="416.38 213.26 358.95 222.11 272.72 303.92 386.6 265.23 416.38 213.26"/>
      <path class="f" d="M263,309.79l94.83-89.97,63.17-9.73-32.75,57.14-125.24,42.56ZM360.08,224.39l-77.65,73.67,102.52-34.84,26.82-46.8-51.69,7.97Z"/>
    </g>
  </g>
  <g id="c" data-name="Layer 5">
    <g>
      <circle class="i" cx="263" cy="311.21" r="14.79"/>
      <path class="f" d="M263,328.5c-9.54,0-17.29-7.76-17.29-17.29s7.76-17.29,17.29-17.29,17.29,7.76,17.29,17.29-7.76,17.29-17.29,17.29ZM263,298.91c-6.78,0-12.29,5.51-12.29,12.29s5.51,12.29,12.29,12.29,12.29-5.51,12.29-12.29-5.51-12.29-12.29-12.29Z"/>
    </g>
  </g>
  <g id="d" data-name="Layer 4">
    <path class="i" d="M247.11,438.12c-31.49,0-62.74-7.48-91.56-22.28-47.77-24.51-83.12-66.16-99.57-117.27-16.44-51.11-11.99-105.56,12.52-153.33,24.52-47.77,66.16-83.13,117.27-99.57,40.53-13.04,83.28-12.98,123.64.16,19.58,6.37,38,15.67,54.77,27.63l-11.62,16.28c-15.1-10.77-31.7-19.15-49.34-24.89-36.33-11.83-74.82-11.88-111.32-.14-46.02,14.8-83.53,46.65-105.6,89.66s-26.08,92.05-11.27,138.07c14.8,46.02,46.65,83.53,89.66,105.6,43.01,22.08,92.05,26.08,138.07,11.28l6.12,19.04c-20.27,6.52-41.07,9.76-61.77,9.76Z"/>
  </g>
  <g id="e" data-name="Layer 3">
    <polygon class="i" points="301.68 102.36 299.22 82.52 350.68 76.15 337.31 21.08 356.74 16.36 375.41 93.25 301.68 102.36"/>
  </g>
</svg>