<?xml version="1.0" encoding="UTF-8"?>
<svg xmlns="http://www.w3.org/2000/svg" viewBox="0 0 250 250">
  <defs>
    <style>
      .d {
        fill: #cbb89d;
      }

      .d, .e, .f, .g, .h {
        stroke-width: 0px;
      }

      .e {
        fill: #412f26;
      }

      .i {
        fill: none;
        stroke: #806044;
        stroke-miterlimit: 10;
        stroke-width: 3px;
      }

      .f {
        fill: #6a6f4c;
      }

      .g {
        fill: #b9c186;
      }

      .h {
        fill: #ede1d2;
      }
    </style>
  </defs>
  <g id="a" data-name="Layer 2">
    <path class="e" d="M120.74,126.55c-4.35,30.29-2.48,67,17.23,91.75.5.62,1.73,2.13,2.22,2.73.53.55,3.43,3.63,4.01,4.25.64.58,3.76,3.4,4.31,3.94,1.33,1.03,3.3,2.54,4.61,3.61,3.73,2.57,8.06,5.24,12.17,7.18,1.56.69,3.88,1.75,5.43,2.45,3.09,1.11,7.06,2.71,10.22,3.54,1.55.46,3.1.94,4.65,1.44,0,0-.08.49-.08.49-3.24-.34-6.55-.52-9.75-1.19-1.76-.4-5.6-1.11-7.22-1.7-6.4-1.84-12.52-4.64-18.17-8.19-1.49-1.05-3.66-2.59-5.12-3.67-.61-.52-4.04-3.58-4.71-4.19-.62-.7-3.69-4-4.24-4.66-.5-.66-1.76-2.35-2.27-3.02-15.55-21.74-18.83-49.65-16.65-75.57.56-6.49,1.43-12.94,2.87-19.29l.49.1h0Z"/>
    <path class="f" d="M120.4,126.75s-26.67-46.29-25.55-60.43c.68-8.57-2.63-17.25-3.69-25.69-1.22-9.71.84-29.64,10.2-35.78,4.52-2.97,14.54-4.41,19.24-.8,5.48,4.21,5.68,15.89,6.38,22.29,1.01,9.29,1.41,18.64,1.45,27.98.11,23.46-2,47.15-7.43,69.99-.19.81-.39,1.62-.59,2.43-12.86,51.43,0,0,0,0,0,0,5.14-68.14,14.14-73.29s18-5.14,23.14,6.43-37.29,66.86-37.29,66.86c0,0,46.29-74.57,65.57-86.15,5.12-3.07,10.79-5.38,16.7-6.34,3.48-.56,12.79-1.73,15.4,1.58.5.63.7,1.44.86,2.23,2.77,13.47-4.2,27.04-16.25,33.39,0,0-61.72,46.29-82.29,55.29-20.57,9,0,0,0,0,0,0,48.37-32.14,78.19-32.79,10.77-.23,24.56,2.48,28.01,14.37.34,1.16.55,2.4.3,3.59-.24,1.11-.86,2.09-1.5,3.03-6.12,8.95-15.95,19.52-27.68,19.52-15.59,0-70.88-5.14-77.31-7.71-6.43-2.57,0,0,0,0,0,0,90.85,12.15,100.07,36.93,9.22,24.78-25.66,17.84-34.58,14.88s-55.21-40.24-65.49-51.81c-10.29-11.57,0,0,0,0,0,0,41.45,37.29,45.79,50.14,4.35,12.86,4.35,31.6-4.65,31.87-9,.27-30.86-20.63-34.72-35.89-3.86-15.26-9.83-32.88-6.43-46.12,3.22-12.52,0,0,0,0-2.81,16.38-5.87,32.77-10.48,48.75-4.32,14.98-9.56,31.2-19.95,43.19-8.27,9.54-19.49,12.32-27.43,1.92-19.54-25.61,50.14-88.72,57.86-93.86,7.71-5.14-65.44,63-81.58,59.14s-22.62-24.59-14.88-29.65,28.06-26.24,96.46-29.49,0,0,0,0c0,0-88.72,9-101.57-12.86s-11.57-24.43-5.14-32.14c6.43-7.71,36.52,1.43,36.52,1.43,0,0,63.77,32,70.2,43.57s0,0,0,0c0,0-72-36.38-75.86-58.05s30.86-21.67,37.29-11.38,33.43,51.43,38.57,69.43,0,0,0,0"/>
  </g>
  <g id="b" data-name="Layer 4">
    <path class="i" d="M84.5,96.5s19.79,18,25.89,25.5"/>
    <path class="i" d="M91.97,122s15.75-.79,21.64,2.85"/>
    <path class="i" d="M111.5,129s-11.82-.18-23.78,2.21c-10.34,2.06-20.79,6.05-23.78,13.73"/>
    <path class="i" d="M80.5,147.5s-2.56-10.59,7.22-16.29"/>
    <path class="i" d="M113.61,131s-1.22,15.95-16.16,19.72"/>
    <path class="i" d="M121.67,131.21s-4.27,25.89.78,31.09"/>
    <path class="i" d="M128,130s21.65,3.12,25.57,8.81"/>
    <path class="i" d="M117,111.91s-4.5-12.2,0-23.81"/>
    <path class="i" d="M128,119s16.07-7.87,19.79-16.19"/>
    <circle class="g" cx="80" cy="91" r="8"/>
    <circle class="g" cx="88" cy="120" r="8"/>
    <circle class="g" cx="61" cy="147" r="8"/>
    <circle class="g" cx="80" cy="152" r="8"/>
    <circle class="g" cx="94" cy="153" r="8"/>
    <circle class="g" cx="125" cy="168" r="8"/>
    <circle class="g" cx="154" cy="144" r="8"/>
    <circle class="g" cx="152" cy="99" r="8"/>
    <circle class="g" cx="118" cy="83" r="8"/>
  </g>
  <g id="c" data-name="Layer 3">
    <path class="h" d="M119,111s2-15,8-19,8,3,8,7-.79,14-3.89,16,14.55-5.12,18.72,1.44,0,8.41,0,8.41c0,0-17.83,7.15-21.83,5.15,0,0,8.68,12.96,7.34,16.98s-1.34,10.06-10.34,2.04-8-18.02-8-18.02c0,0-7.26,11.83-13.13,12.91s-13.93-2.38-11.9-7.15,15.31-14.88,15.31-14.88c0,0-15.91-15.89-12.6-21.89s22.32,5,24.32,11Z"/>
    <circle class="d" cx="120" cy="122" r="7"/>
  </g>
</svg>